HIERARCHY
ROOT Hips
{
	OFFSET 0.000000 97.167313 0.000000
	CHANNELS 6 Xposition Yposition Zposition Xrotation Yrotation Zrotation
	JOINT Spine
	{
		OFFSET 0.000000 13.784798 0.064400
		CHANNELS 3 Xrotation Yrotation Zrotation
		JOINT Spine1
		{
			OFFSET 0.000000 12.037903 0.404700
			CHANNELS 3 Xrotation Yrotation Zrotation
			JOINT Spine2
			{
				OFFSET 0.000000 17.795601 0.420200
				CHANNELS 3 Xrotation Yrotation Zrotation
				JOINT Neck
				{
					OFFSET 0.000000 39.131302 11.954600
					CHANNELS 3 Xrotation Yrotation Zrotation
					JOINT Head
					{
						OFFSET 0.000000 14.456192 15.627699
						CHANNELS 3 Xrotation Yrotation Zrotation
						JOINT HeadTop_End
						{
							OFFSET 0.000000 15.703506 7.603401
							CHANNELS 3 Xrotation Yrotation Zrotation
							End Site
							{
								OFFSET 0.000000 17.447403 0.000000
							}
						}
					}
				}
				JOINT LeftShoulder
				{
					OFFSET 17.399500 24.608795 1.168800
					CHANNELS 3 Xrotation Yrotation Zrotation
					JOINT LeftArm
					{
						OFFSET 18.980635 5.765305 1.818600
						CHANNELS 3 Xrotation Yrotation Zrotation
						JOINT LeftForeArm
						{
							OFFSET 49.290169 0.000000 0.000000
							CHANNELS 3 Xrotation Yrotation Zrotation
							JOINT LeftHand
							{
								OFFSET 31.562012 0.000000 0.000000
								CHANNELS 3 Xrotation Yrotation Zrotation
								JOINT LeftHandThumb1
								{
									OFFSET 6.133995 -4.388519 7.076070
									CHANNELS 3 Xrotation Yrotation Zrotation
									JOINT LeftHandThumb2
									{
										OFFSET 6.037666 -3.485840 3.485847
										CHANNELS 3 Xrotation Yrotation Zrotation
										JOINT LeftHandThumb3
										{
											OFFSET 6.496506 -3.750763 3.750761
											CHANNELS 3 Xrotation Yrotation Zrotation
											JOINT LeftHandThumb4
											{
												OFFSET 5.616882 -3.242905 3.242910
												CHANNELS 3 Xrotation Yrotation Zrotation
												End Site
												{
													OFFSET -1.254608 7.132141 0.375429
												}
											}
										}
									}
								}
								JOINT LeftHandPinky1
								{
									OFFSET 18.920792 -0.453171 -11.426712
									CHANNELS 3 Xrotation Yrotation Zrotation
									JOINT LeftHandPinky2
									{
										OFFSET 4.919586 0.000000 0.000000
										CHANNELS 3 Xrotation Yrotation Zrotation
										JOINT LeftHandPinky3
										{
											OFFSET 5.233047 0.000000 0.000000
											CHANNELS 3 Xrotation Yrotation Zrotation
											JOINT LeftHandPinky4
											{
												OFFSET 5.571716 0.000000 0.000000
												CHANNELS 3 Xrotation Yrotation Zrotation
												End Site
												{
													OFFSET -3.459808 4.342407 -0.466164
												}
											}
										}
									}
								}
								JOINT LeftHandRing1
								{
									OFFSET 22.726120 -0.094986 -6.500475
									CHANNELS 3 Xrotation Yrotation Zrotation
									JOINT LeftHandRing2
									{
										OFFSET 6.408615 0.000000 0.000000
										CHANNELS 3 Xrotation Yrotation Zrotation
										JOINT LeftHandRing3
										{
											OFFSET 6.150223 0.000000 0.000000
											CHANNELS 3 Xrotation Yrotation Zrotation
											JOINT LeftHandRing4
											{
												OFFSET 6.145386 0.000000 0.000000
												CHANNELS 3 Xrotation Yrotation Zrotation
												End Site
												{
													OFFSET -3.671402 4.923981 -0.202372
												}
											}
										}
									}
								}
								JOINT LeftHandMiddle1
								{
									OFFSET 23.373947 0.000000 0.000001
									CHANNELS 3 Xrotation Yrotation Zrotation
									JOINT LeftHandMiddle2
									{
										OFFSET 6.996567 0.000000 0.000000
										CHANNELS 3 Xrotation Yrotation Zrotation
										JOINT LeftHandMiddle3
										{
											OFFSET 7.015945 0.000000 0.000000
											CHANNELS 3 Xrotation Yrotation Zrotation
											JOINT LeftHandMiddle4
											{
												OFFSET 7.721573 0.000000 0.000000
												CHANNELS 3 Xrotation Yrotation Zrotation
												End Site
												{
													OFFSET -4.651108 6.158463 0.251582
												}
											}
										}
									}
								}
								JOINT LeftHandIndex1
								{
									OFFSET 21.310577 -0.490082 6.209344
									CHANNELS 3 Xrotation Yrotation Zrotation
									JOINT LeftHandIndex2
									{
										OFFSET 7.536453 0.000000 0.000000
										CHANNELS 3 Xrotation Yrotation Zrotation
										JOINT LeftHandIndex3
										{
											OFFSET 7.512344 0.000000 0.000000
											CHANNELS 3 Xrotation Yrotation Zrotation
											JOINT LeftHandIndex4
											{
												OFFSET 10.212402 0.000000 0.000001
												CHANNELS 3 Xrotation Yrotation Zrotation
												End Site
												{
													OFFSET -5.180801 8.690506 1.388433
												}
											}
										}
									}
								}
							}
						}
					}
				}
				JOINT RightShoulder
				{
					OFFSET -17.399500 24.608795 1.168800
					CHANNELS 3 Xrotation Yrotation Zrotation
					JOINT RightArm
					{
						OFFSET -18.980635 5.765305 1.818600
						CHANNELS 3 Xrotation Yrotation Zrotation
						JOINT RightForeArm
						{
							OFFSET -49.290169 0.000000 0.000000
							CHANNELS 3 Xrotation Yrotation Zrotation
							JOINT RightHand
							{
								OFFSET -31.562012 0.000000 0.000000
								CHANNELS 3 Xrotation Yrotation Zrotation
								JOINT RightHandThumb1
								{
									OFFSET -6.133995 -4.388519 7.076070
									CHANNELS 3 Xrotation Yrotation Zrotation
									JOINT RightHandThumb2
									{
										OFFSET -6.037666 -3.485840 3.485847
										CHANNELS 3 Xrotation Yrotation Zrotation
										JOINT RightHandThumb3
										{
											OFFSET -6.496506 -3.750763 3.750761
											CHANNELS 3 Xrotation Yrotation Zrotation
											JOINT RightHandThumb4
											{
												OFFSET -5.616882 -3.242905 3.242910
												CHANNELS 3 Xrotation Yrotation Zrotation
												End Site
												{
													OFFSET 1.254608 7.132141 0.375429
												}
											}
										}
									}
								}
								JOINT RightHandIndex1
								{
									OFFSET -21.310577 -0.490082 6.209344
									CHANNELS 3 Xrotation Yrotation Zrotation
									JOINT RightHandIndex2
									{
										OFFSET -7.536453 0.000000 0.000000
										CHANNELS 3 Xrotation Yrotation Zrotation
										JOINT RightHandIndex3
										{
											OFFSET -7.512344 0.000000 0.000000
											CHANNELS 3 Xrotation Yrotation Zrotation
											JOINT RightHandIndex4
											{
												OFFSET -10.212402 0.000000 0.000001
												CHANNELS 3 Xrotation Yrotation Zrotation
												End Site
												{
													OFFSET 5.180801 8.690506 1.388433
												}
											}
										}
									}
								}
								JOINT RightHandMiddle1
								{
									OFFSET -23.373947 0.000000 0.000001
									CHANNELS 3 Xrotation Yrotation Zrotation
									JOINT RightHandMiddle2
									{
										OFFSET -6.996567 0.000000 0.000000
										CHANNELS 3 Xrotation Yrotation Zrotation
										JOINT RightHandMiddle3
										{
											OFFSET -7.015945 0.000000 0.000000
											CHANNELS 3 Xrotation Yrotation Zrotation
											JOINT RightHandMiddle4
											{
												OFFSET -7.721573 0.000000 0.000000
												CHANNELS 3 Xrotation Yrotation Zrotation
												End Site
												{
													OFFSET 4.651108 6.158463 0.251582
												}
											}
										}
									}
								}
								JOINT RightHandRing1
								{
									OFFSET -22.726120 -0.094986 -6.500475
									CHANNELS 3 Xrotation Yrotation Zrotation
									JOINT RightHandRing2
									{
										OFFSET -6.408615 0.000000 0.000000
										CHANNELS 3 Xrotation Yrotation Zrotation
										JOINT RightHandRing3
										{
											OFFSET -6.150223 0.000000 0.000000
											CHANNELS 3 Xrotation Yrotation Zrotation
											JOINT RightHandRing4
											{
												OFFSET -6.145386 0.000000 0.000000
												CHANNELS 3 Xrotation Yrotation Zrotation
												End Site
												{
													OFFSET 3.671402 4.923981 -0.202372
												}
											}
										}
									}
								}
								JOINT RightHandPinky1
								{
									OFFSET -18.920792 -0.453171 -11.426712
									CHANNELS 3 Xrotation Yrotation Zrotation
									JOINT RightHandPinky2
									{
										OFFSET -4.919586 0.000000 0.000000
										CHANNELS 3 Xrotation Yrotation Zrotation
										JOINT RightHandPinky3
										{
											OFFSET -5.233047 0.000000 0.000000
											CHANNELS 3 Xrotation Yrotation Zrotation
											JOINT RightHandPinky4
											{
												OFFSET -5.571716 0.000000 0.000000
												CHANNELS 3 Xrotation Yrotation Zrotation
												End Site
												{
													OFFSET 3.459808 4.342407 -0.466164
												}
											}
										}
									}
								}
							}
						}
					}
				}
			}
		}
	}
	JOINT LeftUpLeg
	{
		OFFSET 19.899099 -7.885101 -3.429500
		CHANNELS 3 Xrotation Yrotation Zrotation
		JOINT LeftLeg
		{
			OFFSET 1.745560 -36.997807 10.304700
			CHANNELS 3 Xrotation Yrotation Zrotation
			JOINT LeftFoot
			{
				OFFSET -1.745558 -29.803308 -13.615400
				CHANNELS 3 Xrotation Yrotation Zrotation
				JOINT LeftToeBase
				{
					OFFSET 1.181900 -18.539904 15.226099
					CHANNELS 3 Xrotation Yrotation Zrotation
					JOINT LeftToe_End
					{
						OFFSET -0.863701 1.402801 16.534700
						CHANNELS 3 Xrotation Yrotation Zrotation
						End Site
						{
							OFFSET 0.000000 16.616566 0.000000
						}
					}
				}
			}
		}
	}
	JOINT RightUpLeg
	{
		OFFSET -19.899099 -7.885101 -3.429500
		CHANNELS 3 Xrotation Yrotation Zrotation
		JOINT RightLeg
		{
			OFFSET -1.745560 -36.997807 10.304700
			CHANNELS 3 Xrotation Yrotation Zrotation
			JOINT RightFoot
			{
				OFFSET 1.745558 -29.803308 -13.615400
				CHANNELS 3 Xrotation Yrotation Zrotation
				JOINT RightToeBase
				{
					OFFSET -1.181900 -18.539904 15.226099
					CHANNELS 3 Xrotation Yrotation Zrotation
					JOINT RightToe_End
					{
						OFFSET 0.863701 1.402801 16.534700
						CHANNELS 3 Xrotation Yrotation Zrotation
						End Site
						{
							OFFSET 0.000000 16.616566 0.000000
						}
					}
				}
			}
		}
	}
}
MOTION
Frames: 5
Frame Time: 0.033333
0.272983 75.877464 -111.889824 2.052428 -65.075338 7.308316 13.268689 0.978330 -10.794629 8.275600 3.041748 -4.500612 8.116429 4.121466 -4.233687 -19.684778 26.666399 8.857842 0.658159 27.334151 -10.394849 -0.000000 -0.000000 -0.000000 -7.924182 -10.321552 -9.933083 -40.553374 15.618056 -33.832512 -2.215743 -50.237319 -1.740137 23.923393 -9.991348 1.160598 -0.518269 -4.506962 9.761630 3.309264 22.743651 -0.983129 1.464416 4.067880 3.970410 0.000001 -0.000002 -0.000002 -5.629685 7.717742 -17.089611 0.237116 0.286490 -49.799650 0.291652 0.240157 -49.498156 0.000002 0.000004 -0.000002 6.097636 3.191593 -19.420548 0.051512 0.358748 -33.336593 0.424069 0.823483 -45.352152 0.000002 -0.000001 0.000003 8.461514 -0.297180 -4.126457 0.248148 0.661787 -33.113263 0.474389 0.207209 -47.568204 0.000001 -0.000003 0.000001 13.352904 -1.028434 7.472323 -0.163943 0.305322 -34.316899 -0.128740 0.288268 -35.467683 -0.000002 0.000003 0.000001 -4.230661 24.101233 -1.825072 -51.160446 -22.012317 18.635316 52.669935 107.755585 -51.281614 10.007649 -0.655464 -4.193857 0.468234 8.356533 -11.515919 1.938577 -18.960923 2.398568 3.570313 -14.881659 -8.982228 -0.000001 0.000000 0.000002 19.439109 11.176268 -11.523268 -0.116934 -0.324270 19.852133 -0.074315 -0.285836 25.073100 -0.000000 -0.000001 0.000001 4.295386 2.419335 -2.994374 0.372671 -0.467597 28.706916 0.493141 0.156357 40.861067 -0.000001 -0.000002 -0.000007 -7.020450 -10.711697 7.532421 0.102516 -0.101424 27.972271 0.464427 -0.481078 35.081576 -0.000001 0.000000 -0.000005 -19.446807 -20.247346 7.796704 0.229864 -0.092617 38.661104 0.268536 -0.053090 38.288176 -0.000001 -0.000000 0.000006 -37.597849 7.146850 26.199089 44.511089 -12.421040 -8.796057 -7.625702 3.753189 -3.295460 1.330821 3.296785 -1.601165 0.000000 -0.000001 -0.000000 -36.523385 -0.108950 -35.132710 49.023956 9.997929 -4.767054 -16.084930 3.699629 25.736038 -0.324259 -0.996868 -0.836633 -0.000000 0.000001 -0.000000 
-0.141558 76.469978 -112.333900 1.087554 -64.217445 6.752041 12.881026 0.736269 -9.913403 8.374449 2.289228 -4.545947 8.301925 3.391029 -4.215953 -20.656715 26.480170 9.254360 0.565333 27.208303 -10.081190 0.000000 0.000000 -0.000000 -8.049910 -10.693744 -10.092952 -38.939646 14.288365 -34.244291 -1.707799 -45.816154 -1.261009 25.212441 -11.165784 3.053244 -0.528203 -4.566437 9.739524 3.446948 23.160931 -0.825405 1.558516 4.495291 4.171576 -0.000002 -0.000000 -0.000002 -5.648496 7.731909 -17.572953 0.239077 0.287939 -50.284327 0.293953 0.241132 -49.982744 -0.000001 -0.000004 0.000001 6.093067 3.200965 -19.905019 0.052571 0.361947 -33.821283 0.427440 0.824589 -45.836775 -0.000002 0.000002 0.000000 8.455572 -0.292050 -4.611003 0.250386 0.663244 -33.597933 0.477364 0.207977 -48.052877 0.000001 0.000000 0.000004 13.361785 -1.030204 6.987665 -0.163405 0.305600 -34.801515 -0.127667 0.287652 -35.952258 -0.000000 0.000001 0.000001 -4.329750 22.839741 -2.001585 -47.301263 -22.184080 20.666464 52.600540 108.157698 -51.147253 8.268154 2.531927 -5.717972 0.454732 8.472609 -11.473296 1.901119 -18.855407 2.440346 3.555395 -14.770791 -8.933280 -0.000003 0.000001 0.000001 19.438952 11.176136 -11.647018 -0.117088 -0.324162 19.728438 -0.074795 -0.285935 24.949436 0.000002 -0.000002 0.000001 4.296755 2.420586 -3.118106 0.371951 -0.467178 28.583194 0.492421 0.156585 40.737407 -0.000003 -0.000002 -0.000009 -7.019126 -10.710577 7.408857 0.102511 -0.100629 27.848614 0.463747 -0.480983 34.957878 0.000001 -0.000001 -0.000002 -19.446457 -20.246846 7.672704 0.229477 -0.092172 38.537355 0.267999 -0.052671 38.164508 -0.000003 -0.000000 -0.000001 -36.394257 9.741994 25.645786 44.289399 -12.548547 -9.328648 -9.021305 1.551059 -2.672442 1.351580 5.420891 -0.300091 -0.000000 -0.000001 -0.000000 -34.728042 -0.331150 -35.089834 48.767797 8.894387 -4.792926 -16.886992 3.328871 25.841182 -0.324257 -0.996985 -0.836649 -0.000000 -0.000001 -0.000000 
-0.475241 77.022797 -112.583405 -0.261448 -63.101850 5.264055 12.928019 0.424544 -8.094561 8.334631 1.506559 -4.737135 8.344795 2.583387 -4.364641 -21.462567 26.262369 9.712141 0.349518 27.114482 -9.544178 -0.000001 0.000000 -0.000000 -8.025290 -10.970853 -9.724769 -37.247258 13.276400 -34.409848 -1.423569 -42.554660 -0.998714 26.163747 -11.531828 5.103978 -0.554082 -4.721337 9.681622 3.498456 23.317427 -0.766175 1.594370 4.655135 4.247646 -0.000000 -0.000002 -0.000001 -5.659202 7.739780 -17.754230 0.239874 0.288445 -50.466167 0.294734 0.241435 -50.164632 0.000001 -0.000001 -0.000006 6.090716 3.203143 -20.086968 0.053206 0.363199 -34.003086 0.428615 0.825161 -46.018601 0.000000 0.000000 0.000003 8.453478 -0.290104 -4.792890 0.251097 0.663761 -33.779787 0.478491 0.208294 -48.234741 0.000001 0.000001 0.000004 13.365727 -1.030934 6.805738 -0.163196 0.305798 -34.983385 -0.127281 0.287395 -36.134166 0.000002 0.000002 -0.000003 -4.523315 21.617211 -1.857246 -44.429817 -22.265192 23.045656 54.174755 107.632614 -52.823860 6.611671 6.126964 -6.851669 0.439114 8.606876 -11.423977 1.857918 -18.733226 2.488680 3.538009 -14.642454 -8.876603 0.000003 -0.000001 0.000002 19.438773 11.176002 -11.790168 -0.117215 -0.324011 19.585371 -0.075340 -0.285987 24.806311 0.000001 -0.000001 -0.000001 4.298568 2.421973 -3.261234 0.371161 -0.466674 28.440114 0.491541 0.156919 40.594314 0.000001 -0.000001 -0.000004 -7.017556 -10.709395 7.265983 0.102475 -0.099688 27.705457 0.462769 -0.480877 34.814874 0.000000 -0.000001 -0.000005 -19.446013 -20.246276 7.529356 0.229012 -0.091641 38.394303 0.267358 -0.052287 38.021337 -0.000003 -0.000001 -0.000001 -35.488789 11.508376 26.086094 43.759396 -13.052296 -9.837367 -8.700953 -0.935198 -3.017537 -1.276247 5.997444 -0.030507 0.000001 0.000004 -0.000000 -32.379147 -1.140161 -34.675340 48.062750 7.783713 -4.768671 -17.571512 2.807919 26.038010 -0.324206 -0.996840 -0.836665 -0.000000 0.000000 -0.000000 
-0.795775 77.526642 -112.780884 -1.028636 -63.044770 4.069797 12.740908 0.377456 -6.119048 8.320611 1.185512 -5.133575 8.348871 2.189325 -4.802761 -22.095962 26.032974 10.188968 0.066098 27.036964 -8.876653 -0.000000 -0.000000 -0.000000 -7.868645 -11.163183 -8.981039 -35.193533 12.739321 -34.739189 -1.258686 -40.328367 -0.850326 26.216581 -11.641485 7.435107 -0.590176 -4.952483 9.596774 3.485153 23.276311 -0.781188 1.584735 4.613369 4.228132 -0.000001 -0.000000 -0.000002 -5.661339 7.741096 -17.707349 0.239667 0.288366 -50.418694 0.294537 0.241387 -50.117199 -0.000001 0.000002 -0.000005 6.089798 3.202646 -20.039517 0.053435 0.362856 -33.955609 0.428180 0.825361 -45.971176 -0.000001 0.000005 0.000007 8.454126 -0.290610 -4.745379 0.250711 0.663667 -33.732347 0.478235 0.208194 -48.187220 -0.000000 0.000002 0.000007 13.366694 -1.030729 6.853144 -0.163256 0.305703 -34.935946 -0.127513 0.287448 -36.086680 0.000000 -0.000000 0.000001 -4.698546 20.398942 -1.625578 -43.058438 -22.320647 25.076843 54.288311 107.273804 -52.992279 5.029187 8.765438 -6.998100 0.421646 8.755923 -11.369279 1.809690 -18.597714 2.542464 3.518608 -14.500063 -8.813677 0.000000 0.000000 -0.000001 19.438502 11.175813 -11.949035 -0.117372 -0.323874 19.426486 -0.075918 -0.286036 24.647474 0.000000 0.000000 -0.000001 4.300841 2.423551 -3.420170 0.370293 -0.466084 28.281237 0.490563 0.157260 40.435454 0.000001 0.000003 -0.000004 -7.016170 -10.708037 7.107319 0.102473 -0.098598 27.546650 0.461446 -0.480820 34.655973 0.000003 -0.000002 -0.000005 -19.445615 -20.245644 7.370303 0.228444 -0.091066 38.235399 0.266699 -0.051785 37.862573 -0.000001 0.000000 0.000001 -33.466916 12.499918 27.698697 41.900079 -13.645406 -10.450557 -8.731976 1.021916 -6.303145 -1.128408 3.629386 0.195204 0.000000 -0.000000 0.000000 -31.112174 -1.790057 -33.691786 47.155472 7.113171 -4.786606 -17.572688 2.932323 25.891263 -0.324269 -0.996983 -0.836659 -0.000000 0.000002 -0.000000 
-1.198782 77.816322 -112.988510 -1.161497 -63.606055 3.635440 12.235705 0.499531 -4.706774 8.377510 1.155856 -5.509619 8.383505 2.085373 -5.270075 -22.555574 25.813312 10.638479 -0.252523 26.959569 -8.153088 -0.000001 -0.000000 -0.000000 -7.603186 -11.285315 -8.031887 -33.289601 11.938808 -35.182462 -1.063549 -37.846481 -0.687986 25.253970 -12.217929 9.987708 -0.634801 -5.247012 9.489481 3.418241 23.070952 -0.857934 1.539355 4.402959 4.130271 -0.000001 -0.000002 -0.000003 -5.659938 7.739369 -17.469913 0.238667 0.287552 -50.180833 0.293438 0.240919 -49.879311 0.000003 -0.000002 -0.000007 6.090547 3.199737 -19.801710 0.053550 0.361299 -33.717830 0.426388 0.825203 -45.733256 -0.000001 0.000002 0.000000 8.457189 -0.293124 -4.507552 0.249061 0.662917 -33.494455 0.476723 0.207841 -47.949355 0.000001 -0.000001 0.000004 13.365731 -1.029839 7.090992 -0.163521 0.305541 -34.698064 -0.128265 0.287758 -35.848822 -0.000001 0.000003 0.000002 -4.782571 19.190240 -1.139953 -43.188457 -22.233121 26.058249 50.715736 107.598033 -49.328791 3.332604 9.667572 -6.717959 0.402810 8.916382 -11.310365 1.757732 -18.451934 2.600368 3.497601 -14.346783 -8.745933 0.000003 -0.000001 -0.000001 19.438276 11.175699 -12.119953 -0.117518 -0.323763 19.255509 -0.076595 -0.286100 24.476517 -0.000000 -0.000001 -0.000001 4.303630 2.425214 -3.591202 0.369347 -0.465545 28.110330 0.489568 0.157670 40.264522 0.000002 0.000000 -0.000004 -7.015043 -10.706522 6.936515 0.102449 -0.097426 27.375747 0.459607 -0.480679 34.484969 0.000001 -0.000003 -0.000007 -19.445072 -20.244969 7.199331 0.227840 -0.090420 38.064514 0.265967 -0.051270 37.691579 -0.000003 0.000001 -0.000001 -31.243785 12.837203 29.302208 40.067208 -12.733678 -10.951362 -8.790767 2.585252 -10.452131 -0.488532 1.490180 0.714850 -0.000000 0.000001 0.000000 -31.013778 -2.285737 -32.294688 46.972283 9.049097 -4.856795 -17.436602 1.258542 24.288774 -0.324249 -0.997038 -0.836617 -0.000000 0.000001 -0.000000 
